# xmcd
#
# Track frame offsets:
#	150
#	9945
#	20790
#	30450
#	41123
#	50131
#	58389
#	69954
#	80859
#	91509
#	102902
#	113747
#
# Disc length: 1650 seconds
#
# Revision: 1
# Processed by: cddbd v1.5.2PL0 Copyright (c) Steve Scherf et al.
# Submitted via: audiograbber 1.83.01
#
DISCID=9a06700c
DTITLE=Porter Wagoner and Dolly Parton - Always, Always
DYEAR=1969
DGENRE=Country
TTITLE0=Milwaukee, Here I Come
TTITLE1=Yours Love
TTITLE2=I Don't Believe You've Met My Baby
TTITLE3=Malena
TTITLE4=The House Where Love Lives
TTITLE5=Why Don't You Haul Off and Love Me
TTITLE6=Always, Always
TTITLE7=There Never Was A Time
TTITLE8=Good As Gold
TTITLE9=My Hands Are Tired
TTITLE10=No Reason To Hurry Home
TTITLE11=Anything's Better Than Nothing
EXTD=
EXTT0=
EXTT1=
EXTT2=
EXTT3=
EXTT4=
EXTT5=
EXTT6=
EXTT7=
EXTT8=
EXTT9=
EXTT10=
EXTT11=
PLAYORDER=
